<?xml version="1.0" standalone="no"?>
<!DOCTYPE svg PUBLIC "-//W3C//DTD SVG 20010904//EN"
 "http://www.w3.org/TR/2001/REC-SVG-20010904/DTD/svg10.dtd">
<svg version="1.0" xmlns="http://www.w3.org/2000/svg"
 width="690.000000pt" height="690.000000pt" viewBox="0 0 690.000000 690.000000"
 preserveAspectRatio="xMidYMid meet">
<metadata>
Created by potrace 1.14, written by Peter Selinger 2001-2017
</metadata>
<g transform="translate(0.000000,690.000000) scale(0.100000,-0.100000)"
fill="#000000" stroke="none">
<path d="M2545 5969 c-89 -17 -202 -59 -264 -99 -220 -143 -335 -367 -390
-762 -33 -239 -40 -368 -91 -1648 -62 -1529 -67 -1619 -106 -1760 -59 -213
-238 -274 -466 -159 -44 22 -81 39 -83 37 -2 -2 -53 -494 -59 -562 -1 -21 50
-42 204 -81 578 -146 966 53 1114 573 41 141 64 294 77 502 5 85 32 754 59
1485 28 732 55 1377 60 1435 27 278 91 405 227 446 91 27 181 15 320 -43 l72
-31 6 32 c8 47 53 551 50 554 -7 8 -280 72 -348 81 -93 13 -311 13 -382 0z"/>
<path d="M4555 4874 c-271 -25 -438 -85 -617 -221 -31 -24 -59 -40 -61 -36 -3
5 -8 24 -12 43 -12 58 -50 113 -97 140 -41 24 -49 25 -223 25 -165 0 -183 -2
-220 -21 -46 -25 -66 -45 -89 -91 -14 -29 -16 -154 -16 -1343 0 -1111 2 -1315
14 -1338 21 -39 76 -88 115 -101 43 -14 343 -15 394 0 52 14 114 72 127 118 6
22 11 345 13 856 3 746 5 826 21 890 51 201 156 344 316 426 143 75 381 89
548 33 140 -46 249 -151 316 -303 60 -135 58 -111 65 -1041 l6 -855 22 -35
c52 -84 102 -100 308 -100 219 0 272 19 316 115 18 38 19 84 19 851 0 480 -4
854 -10 915 -43 430 -236 753 -567 947 -65 38 -206 87 -308 107 -78 15 -305
26 -380 19z"/>
</g>
</svg>
