<?xml version="1.0" standalone="no"?>
<!DOCTYPE svg PUBLIC "-//W3C//DTD SVG 20010904//EN"
 "http://www.w3.org/TR/2001/REC-SVG-20010904/DTD/svg10.dtd">
<svg version="1.0" xmlns="http://www.w3.org/2000/svg"
 width="338.000000pt" height="338.000000pt" viewBox="0 0 338.000000 338.000000"
 preserveAspectRatio="xMidYMid meet">
<metadata>
Created by potrace 1.14, written by Peter Selinger 2001-2017
</metadata>
<g transform="translate(0.000000,338.000000) scale(0.100000,-0.100000)"
fill="#000000" stroke="none">
<path d="M1270 2954 c-111 -30 -190 -98 -241 -208 -60 -130 -70 -232 -104
-1106 -26 -644 -35 -772 -61 -821 -35 -69 -123 -90 -204 -49 -22 11 -43 20
-48 20 -10 0 -37 -273 -29 -287 9 -14 107 -40 195 -53 183 -26 341 50 416 199
69 135 79 230 106 1026 26 742 33 843 65 913 38 84 109 103 218 58 50 -21 57
-22 58 -7 0 9 6 75 13 146 7 72 10 133 7 137 -3 3 -50 16 -103 27 -113 24
-210 26 -288 5z"/>
<path d="M2341 2529 c-70 -9 -186 -67 -250 -125 l-51 -46 0 76 0 76 -215 0
-215 0 0 -760 0 -760 215 0 215 0 0 593 0 593 38 22 c59 33 112 38 142 14 l25
-20 5 -599 5 -598 213 -3 212 -2 0 637 c0 600 -1 642 -19 701 -29 96 -83 159
-156 186 -54 20 -100 24 -164 15z"/>
</g>
</svg>
